<svg width="30" height="30" viewBox="0 0 30 30" fill="none" xmlns="http://www.w3.org/2000/svg">
<g id="entypo:cross">
<path id="Vector" d="M21.5216 22.2735C21.184 22.6111 20.7262 22.8007 20.2488 22.8007C19.7715 22.8007 19.3137 22.6111 18.9761 22.2735L14.9996 17.7285L11.0231 22.272C10.8564 22.4414 10.6579 22.5761 10.439 22.6684C10.22 22.7607 9.98492 22.8087 9.74731 22.8096C9.5097 22.8106 9.27424 22.7645 9.05453 22.674C8.83482 22.5836 8.6352 22.4505 8.46718 22.2825C8.29917 22.1144 8.16608 21.9148 8.07559 21.6951C7.98511 21.4754 7.93902 21.2399 7.93999 21.0023C7.94096 20.7647 7.98896 20.5297 8.08123 20.3107C8.1735 20.0917 8.30821 19.8932 8.47759 19.7265L12.6146 15.0015L8.47609 10.2735C8.30671 10.1069 8.172 9.90837 8.07973 9.6894C7.98746 9.47044 7.93946 9.23537 7.93849 8.99776C7.93752 8.76015 7.98361 8.5247 8.07409 8.30499C8.16458 8.08528 8.29767 7.88566 8.46568 7.71764C8.6337 7.54962 8.83332 7.41653 9.05303 7.32605C9.27274 7.23556 9.5082 7.18948 9.74581 7.19044C9.98342 7.19141 10.2185 7.23942 10.4375 7.33168C10.6564 7.42395 10.8549 7.55866 11.0216 7.72805L14.9996 12.2745L18.9761 7.72805C19.1427 7.55866 19.3413 7.42395 19.5602 7.33168C19.7792 7.23942 20.0143 7.19141 20.2519 7.19044C20.4895 7.18948 20.7249 7.23556 20.9446 7.32605C21.1644 7.41653 21.364 7.54962 21.532 7.71764C21.7 7.88566 21.8331 8.08528 21.9236 8.30499C22.0141 8.5247 22.0602 8.76015 22.0592 8.99776C22.0582 9.23537 22.0102 9.47044 21.918 9.6894C21.8257 9.90837 21.691 10.1069 21.5216 10.2735L17.3846 15.0015L21.5216 19.7265C21.6889 19.8937 21.8217 20.0922 21.9123 20.3108C22.0029 20.5293 22.0495 20.7635 22.0495 21C22.0495 21.2366 22.0029 21.4708 21.9123 21.6893C21.8217 21.9079 21.6889 22.1064 21.5216 22.2735Z" fill="#FF8C05"/>
</g>
</svg>
