<svg width="817" height="848" viewBox="0 0 817 848" fill="none" xmlns="http://www.w3.org/2000/svg">
<path d="M56.0303 140.402C56.3603 140.012 56.7503 139.652 57.1103 139.282C127.59 69.2819 241.48 60.2819 332.42 88.8419C376.88 102.792 411.76 141.992 453.56 161.442C467.47 167.892 482.13 172.142 498.16 172.582C540.1 173.732 579.27 146.002 621.1 149.192C674.5 153.192 705.95 207.192 713.55 255.192C726.09 334.562 689.77 420.682 644.55 484.092C619.73 518.932 591.8 551.092 565 584.332C544.21 610.202 530.51 649.332 558 676.212C594.5 711.882 605.73 632.942 648.76 650.962C755.89 695.812 743.67 791.962 719.35 833.122C697.15 870.772 654.35 896.032 610.71 899.602C603.782 900.172 596.818 900.172 589.89 899.602" stroke="#CCDDE2" stroke-width="5.4" stroke-miterlimit="10"/>
<path d="M249.12 641.441C249.12 641.551 249.12 641.661 249.12 641.771C249.12 649.121 281.66 677.151 286.56 682.341" stroke="#CCDDE2" stroke-width="5.4" stroke-miterlimit="10"/>
<path d="M147.87 899.24C138 899.57 128.67 899.53 119.81 899.17C17.27 886.58 -59.8601 682.34 60.79 620.34" stroke="#CCDDE2" stroke-width="5.4" stroke-miterlimit="10"/>
<path d="M264.17 369.931V163.001C264.162 157.007 261.777 151.26 257.539 147.022C253.3 142.783 247.554 140.399 241.56 140.391H-47.44C-53.4255 140.412 -59.159 142.802 -63.3866 147.039C-67.6143 151.276 -69.9921 157.015 -70 163.001V573.291C-69.9921 579.281 -67.6061 585.023 -63.3665 589.255C-59.1269 593.487 -53.3805 595.863 -47.39 595.861H241.61C244.413 595.88 247.193 595.347 249.79 594.291" stroke="black" stroke-opacity="0.02" stroke-width="5.4" stroke-linecap="round" stroke-linejoin="round"/>
<path d="M235.41 154.238H-41.2404C-51.5239 154.238 -59.8604 162.575 -59.8604 172.858V563.458C-59.8604 573.742 -51.5239 582.078 -41.2404 582.078H235.41C245.694 582.078 254.03 573.742 254.03 563.458V172.858C254.03 162.575 245.694 154.238 235.41 154.238Z" fill="#FF8C05" fill-opacity="0.02"/>
<path d="M229.67 187.352H-32.0699C-37.2117 187.352 -41.3799 191.52 -41.3799 196.662V258.142C-41.3799 263.283 -37.2117 267.452 -32.0699 267.452H229.67C234.812 267.452 238.98 263.283 238.98 258.142V196.662C238.98 191.52 234.812 187.352 229.67 187.352Z" fill="#FF8C05" fill-opacity="0.02"/>
<path d="M97.08 221.092C101.658 221.092 105.37 217.38 105.37 212.802C105.37 208.223 101.658 204.512 97.08 204.512C92.502 204.512 88.79 208.223 88.79 212.802C88.79 217.38 92.502 221.092 97.08 221.092Z" fill="#D7E8F0"/>
<path d="M73.9396 250.291C73.8756 247.211 74.4266 244.15 75.5616 241.285C76.6956 238.421 78.3906 235.812 80.5456 233.612C82.7016 231.411 85.2746 229.662 88.1146 228.469C90.9546 227.275 94.0036 226.66 97.0846 226.66C100.166 226.66 103.215 227.275 106.055 228.469C108.895 229.662 111.468 231.411 113.624 233.612C115.779 235.812 117.474 238.421 118.608 241.285C119.743 244.15 120.294 247.211 120.23 250.291H73.9396Z" fill="#D7E8F0"/>
<path d="M-13.3398 303.211H204.65" stroke="white" stroke-opacity="0.02" stroke-width="5.4" stroke-miterlimit="10"/>
<path d="M-13.3398 324.672H204.65" stroke="white" stroke-opacity="0.02" stroke-width="5.4" stroke-miterlimit="10"/>
<path d="M-13.3398 462.852H204.65" stroke="white" stroke-opacity="0.02" stroke-width="5.4" stroke-miterlimit="10"/>
<path d="M37.29 483.141H154.02" stroke="white" stroke-opacity="0.02" stroke-width="5.4" stroke-miterlimit="10"/>
<path d="M41.9002 405.769L24.5102 424.249C23.1002 425.748 21.4082 426.955 19.5312 427.8C17.6542 428.645 15.6302 429.112 13.5722 429.175C11.5152 429.238 9.4662 428.895 7.5412 428.165C5.6162 427.436 3.85421 426.334 2.35521 424.924C0.856209 423.514 -0.350801 421.822 -1.1958 419.945C-2.0408 418.068 -2.5078 416.044 -2.5708 413.986C-2.6338 411.929 -2.2898 409.88 -1.5608 407.955C-0.831799 406.03 0.270206 404.268 1.68021 402.769L19.0602 384.289L41.9002 405.769Z" fill="#FF8C05" fill-opacity="0.02"/>
<path d="M59.27 387.272L41.88 405.772L19.04 384.292L36.44 365.802C39.294 362.784 43.227 361.018 47.38 360.89C51.532 360.763 55.566 362.284 58.6 365.122C61.607 367.981 63.364 371.912 63.489 376.059C63.615 380.207 62.099 384.236 59.27 387.272Z" fill="#D7E8F0"/>
<path d="M126.86 375.23C126.12 371.65 133.46 365.73 135.86 364.44C144.79 359.76 158.53 363.29 163.42 372.23C174.65 392.73 143.1 421.95 126.81 429.17C124.94 427.67 80.3698 394.33 90.8098 372.99C101.25 351.65 124.27 362.49 126.86 375.23Z" fill="#D7E8F0"/>
<path d="M93.2305 411.77H117.52" stroke="white" stroke-opacity="0.02" stroke-width="5.4" stroke-linecap="round" stroke-linejoin="round"/>
<path d="M105.37 423.911V399.621" stroke="white" stroke-opacity="0.02" stroke-width="5.4" stroke-linecap="round" stroke-linejoin="round"/>
<path d="M574.48 417.232C574.48 417.232 518.38 387.002 482.2 379.692C482.2 379.692 481.95 385.092 475.93 398.422C469.91 411.752 452.15 451.142 452.15 451.142L425.49 430.892L425.89 461.082L352.75 539.202L306.52 438.002L312.68 409.532L286.34 419.622L272.27 369.422C272.27 369.422 202.91 385.022 143.17 433.092C83.4297 481.162 66.3197 556.092 60.7697 620.342C55.2197 684.592 61.8897 752.342 146.77 775.232C146.77 775.232 186.65 785.232 219.12 771.852C229.24 767.672 243.94 763.772 259.36 760.352L258.86 760.532C258.86 760.532 251.86 784.822 231.58 798.042C231.58 798.042 267.11 825.042 327.82 836.812C388.53 848.582 516.82 855.622 581.48 799.522C646.14 743.422 648.78 650.932 648.78 650.932C648.78 650.932 669.78 472.362 574.48 417.232ZM242.27 575.052C240.068 574.979 237.936 574.261 236.14 572.986C234.344 571.711 232.962 569.935 232.167 567.881C231.372 565.826 231.199 563.583 231.669 561.431C232.139 559.279 233.232 557.313 234.811 555.777C236.39 554.241 238.387 553.204 240.551 552.794C242.716 552.384 244.953 552.62 246.984 553.472C249.016 554.324 250.752 555.755 251.976 557.587C253.2 559.418 253.859 561.569 253.87 563.772C253.817 566.803 252.568 569.69 250.395 571.803C248.222 573.916 245.301 575.084 242.27 575.052ZM488.8 678.002C487.1 686.642 477.99 741.302 455.47 747.722C432.95 754.142 410.72 740.182 358.19 745.632C358.19 745.632 346.87 746.062 331.19 747.462C298.44 709.092 331.41 654.402 331.41 654.402C331.41 654.402 405.85 631.732 441.34 648.092C476.83 664.452 490.53 669.342 488.8 678.002Z" fill="#FF8C05" fill-opacity="0.02"/>
<path d="M551.27 829.308V899.608C437.77 899.608 284.21 899.428 173.27 899.288C171.9 863.108 169.74 779.878 178.92 779.288C190.67 778.568 203.1 771.038 217.44 788.158C231.78 805.278 291.81 835.898 375.9 843.098C459.99 850.298 530.9 830.488 546.65 821.918C546.66 821.928 551.27 813.708 551.27 829.308Z" fill="#FF8C05" fill-opacity="0.02"/>
<path d="M242.27 543.22C253.93 543.22 263.42 552.46 263.42 563.82C263.42 575.18 253.93 584.42 242.27 584.42C230.61 584.42 221.13 575.18 221.13 563.82C221.13 552.46 230.61 543.22 242.27 543.22ZM242.27 536.01C226.61 536.01 213.92 548.46 213.92 563.82C213.92 579.18 226.61 591.63 242.27 591.63C257.93 591.63 270.62 579.18 270.62 563.82C270.62 548.46 257.92 536 242.27 536V536.01Z" fill="white" fill-opacity="0.02"/>
<path d="M385.45 410.491L367.27 430.921C366.674 431.401 365.987 431.754 365.25 431.96C364.513 432.166 363.742 432.22 362.984 432.119C362.225 432.018 361.495 431.764 360.838 431.372C360.181 430.981 359.61 430.46 359.16 429.841L346.37 402.321L371.27 382.531L385.45 410.491Z" fill="#FF8C05" fill-opacity="0.02"/>
<path d="M373.92 423.429L381.63 454.399L359.13 482.969L342.33 445.709L354.78 420.469" fill="#FF8C05" fill-opacity="0.02"/>
<path d="M450.5 201.592C446.5 202.492 443 205.592 440.33 208.902C437.848 212.006 435.746 215.397 434.07 219.002C434.07 219.002 425.63 183.002 422.07 151.772C420.88 141.612 417.32 136.172 412.99 133.432C404.06 127.772 391.99 133.822 391.99 133.822L351.89 155.662C344.197 159.901 335.728 162.547 326.99 163.442C322.907 163.912 318.783 163.912 314.7 163.442C292.61 152.522 292.29 109.442 319.13 109.142C319.938 109.896 320.696 110.701 321.4 111.552C321.013 110.758 320.653 109.968 320.32 109.182C321.821 109.227 323.316 109.395 324.79 109.682C326.99 110.112 329.04 112.382 330.41 113.972C323.28 100.132 330.88 82.6918 344.93 77.4018C353.47 74.1918 363.02 74.8018 371.93 76.6818C373.34 76.9618 374.74 77.2918 376.15 77.6818C398.49 84.4218 418.05 96.1318 432.5 115.682C450.79 140.412 455.36 171.722 450.5 201.592Z" fill="#2E2E2E" fill-opacity="0.1"/>
<path d="M195.81 575.609C171.34 684.609 265.27 666.349 387.33 644.859C430.94 637.189 468.05 656.119 489.55 673.779" stroke="black" stroke-opacity="0.02" stroke-width="5.4" stroke-linejoin="round"/>
<path d="M272.27 369.41C216.8 383.06 151.36 416.17 115.36 461.11C68.2301 519.86 58.3601 597.98 59.4301 671.11C60.4301 742.56 135.3 791.91 203.26 776.47" stroke="black" stroke-opacity="0.02" stroke-width="5.4" stroke-linejoin="round"/>
<path d="M301 342.719H301.04" stroke="black" stroke-opacity="0.02" stroke-width="5.4" stroke-linejoin="round"/>
<path d="M495.55 579.631C495.55 579.631 497.55 626.921 489.55 673.781C485.92 695.171 480.21 716.471 471.3 733.151C468.908 737.557 465.393 741.252 461.111 743.86C456.829 746.468 451.933 747.897 446.92 748.001C437.783 748.167 428.645 747.803 419.55 746.911C341.17 739.551 267.71 755.701 214.14 773.451C210.54 774.631 206.92 775.631 203.28 776.451C237.07 807.111 324 863.791 488.36 839.211C709.36 806.211 640.29 514.381 640.29 514.381C634.29 482.941 615.55 453.751 593.02 431.641C567.5 406.641 518.02 390.111 484.38 379.641" stroke="black" stroke-opacity="0.02" stroke-width="5.4" stroke-linejoin="round"/>
<path d="M366.17 324.698C366.17 324.698 298.93 312.698 307.94 233.398C311.94 198.118 319.65 176.538 326.94 163.398" stroke="black" stroke-opacity="0.02" stroke-width="5.4" stroke-linejoin="round"/>
<path d="M429.85 303.839C442.27 285.279 440.37 260.639 444.27 254.439C450.27 244.819 474.269 214.809 459.869 203.999C456.549 201.509 453.379 200.999 450.499 201.579C440.809 203.739 434.069 218.988 434.069 218.988C434.069 218.988 425.639 182.989 422.069 151.749C418.499 120.509 391.98 133.809 391.98 133.809L351.879 155.639C344.189 159.887 335.719 162.536 326.979 163.428C322.406 163.967 317.784 163.93 313.22 163.319C282.22 159.319 280.22 100.629 315.78 107.319C317.98 107.749 320.029 110.019 321.399 111.609C314.259 97.769 321.869 80.329 335.919 75.039C344.459 71.829 354.009 72.439 362.919 74.319C390.739 80.189 415.269 92.318 432.499 115.678C450.799 140.428 455.379 171.739 450.499 201.609" stroke="black" stroke-opacity="0.02" stroke-width="5.4" stroke-linejoin="round"/>
<path d="M357.77 250.22H343.36L344.3 238.8L348.15 192.57" stroke="black" stroke-opacity="0.02" stroke-width="5.4" stroke-linejoin="round"/>
<path d="M344.27 238.798H304.69C301.884 238.798 299.193 237.683 297.209 235.699C295.225 233.715 294.11 231.024 294.11 228.218V192.578H361.01M361.01 192.578V228.218C361.013 231.025 362.13 233.716 364.115 235.7C366.101 237.684 368.793 238.798 371.6 238.798H410.85C413.657 238.798 416.349 237.684 418.335 235.7C420.321 233.716 421.437 231.025 421.44 228.218V192.578H361.01Z" stroke="black" stroke-opacity="0.02" stroke-width="5.4" stroke-linejoin="round"/>
<path d="M357.77 264C357.77 264 367.98 267.6 379.39 250.18" stroke="black" stroke-opacity="0.02" stroke-width="5.4" stroke-linejoin="round"/>
<path d="M352.34 542.699L426.86 459.999L425.5 430.879L451.27 453.089L484.38 379.679L484.47 379.489C476.374 374.718 468.819 369.082 461.94 362.679C458.773 359.706 455.773 356.599 452.94 353.359C449.597 349.564 446.478 345.577 443.6 341.419L441.27 338.129" stroke="black" stroke-opacity="0.02" stroke-width="5.4" stroke-linejoin="round"/>
<path d="M401.22 428.019L385.88 406.889L369.52 385.329L403.86 364.549L441.3 338.129L452.91 353.359L456.81 358.489L447.34 370.619L373.39 465.539V465.579L359.4 482.969" stroke="black" stroke-opacity="0.02" stroke-width="5.4" stroke-linejoin="round"/>
<path d="M329.5 415.999L369.5 385.359L320.36 336.249L301.74 353.809L359.39 482.999L352.34 542.709L306.53 437.999L312.66 409.539L286.32 419.599L271.03 369.929C288.604 363.147 304.494 352.628 317.6 339.099L320.38 336.219" stroke="black" stroke-opacity="0.02" stroke-width="5.4" stroke-linejoin="round"/>
<path d="M385.88 410.49L367.67 430.92C367.075 431.399 366.388 431.753 365.652 431.958C364.916 432.164 364.146 432.218 363.388 432.117C362.631 432.016 361.902 431.762 361.245 431.371C360.589 430.979 360.019 430.459 359.57 429.84L346.77 402.32" stroke="black" stroke-opacity="0.02" stroke-width="5.4" stroke-linejoin="round"/>
<path d="M374.35 423.43L382.07 454.4" stroke="black" stroke-opacity="0.02" stroke-width="5.4" stroke-linejoin="round"/>
<path d="M355.21 420.469L342.76 445.709" stroke="black" stroke-opacity="0.02" stroke-width="5.4" stroke-linejoin="round"/>
<path d="M441.27 338.131L429.85 303.801C426.742 308.157 422.735 311.796 418.1 314.471" stroke="black" stroke-opacity="0.02" stroke-width="5.4" stroke-linejoin="round"/>
<path d="M328.23 303.801L320.38 336.221" stroke="black" stroke-opacity="0.02" stroke-width="5.4" stroke-linejoin="round"/>
<path d="M382.51 221.399C385.415 221.399 387.77 219.044 387.77 216.139C387.77 213.234 385.415 210.879 382.51 210.879C379.605 210.879 377.25 213.234 377.25 216.139C377.25 219.044 379.605 221.399 382.51 221.399Z" fill="black" fill-opacity="0.02"/>
<path d="M336.64 221.399C339.545 221.399 341.9 219.044 341.9 216.139C341.9 213.234 339.545 210.879 336.64 210.879C333.735 210.879 331.38 213.234 331.38 216.139C331.38 219.044 333.735 221.399 336.64 221.399Z" fill="black" fill-opacity="0.02"/>
<path d="M483.5 380C483.5 380 518.88 393.58 487.1 448.49C477.1 465.71 471.68 475.91 468.91 481.75" stroke="black" stroke-opacity="0.02" stroke-width="5.4" stroke-linejoin="round"/>
<path d="M408.43 602.65C408.43 602.65 394.6 596.46 395.02 592.65C395.44 588.84 423.26 497.85 442.58 486.07C461.9 474.29 474.28 484.45 474.28 484.45C474.28 484.45 493.04 494.61 487.39 521.14C481.74 547.67 447.14 611.04 447.14 611.04L433.57 606.4" stroke="black" stroke-opacity="0.02" stroke-width="5.4" stroke-linejoin="round"/>
<path d="M258.87 373.219C258.87 373.219 238.77 439.219 242.87 537.509" stroke="black" stroke-opacity="0.02" stroke-width="5.4" stroke-linejoin="round"/>
<path d="M242.387 592.739C258.972 592.658 272.353 579.649 272.275 563.683C272.197 547.716 258.689 534.839 242.104 534.92C225.519 535.001 212.138 548.01 212.216 563.976C212.294 579.942 225.802 592.82 242.387 592.739Z" stroke="black" stroke-opacity="0.02" stroke-width="5.4" stroke-linejoin="round"/>
<path d="M551.31 899.611V819.581V817.531" stroke="black" stroke-opacity="0.02" stroke-width="5.4" stroke-linejoin="round"/>
<path d="M173.96 899.321V779.231V779.191" stroke="black" stroke-opacity="0.02" stroke-width="5.4" stroke-linejoin="round"/>
<path d="M412.82 611.042C416.857 611.042 420.13 607.769 420.13 603.732C420.13 599.695 416.857 596.422 412.82 596.422C408.783 596.422 405.51 599.695 405.51 603.732C405.51 607.769 408.783 611.042 412.82 611.042Z" fill="white" fill-opacity="0.02"/>
<path d="M429.93 612.46C433.967 612.46 437.24 609.187 437.24 605.15C437.24 601.113 433.967 597.84 429.93 597.84C425.893 597.84 422.62 601.113 422.62 605.15C422.62 609.187 425.893 612.46 429.93 612.46Z" fill="white" fill-opacity="0.02"/>
<path d="M662.71 274.861C729.327 274.861 783.33 220.858 783.33 154.241C783.33 87.625 729.327 33.6211 662.71 33.6211C596.093 33.6211 542.09 87.625 542.09 154.241C542.09 220.858 596.093 274.861 662.71 274.861Z" fill="#FF8C05" fill-opacity="0.02"/>
<path d="M662.27 0C635.196 0.001 608.6 7.1283 585.153 20.6657C561.707 34.203 542.237 53.673 528.7 77.12C515.159 100.564 508.029 127.161 508.029 154.235C508.029 181.309 515.159 207.906 528.7 231.35C542.237 254.797 561.707 274.267 585.153 287.804C608.6 301.342 635.196 308.469 662.27 308.47C689.344 308.469 715.94 301.342 739.387 287.804C762.833 274.267 782.303 254.797 795.84 231.35C809.376 207.904 816.503 181.308 816.503 154.235C816.503 127.162 809.376 100.566 795.84 77.12C782.303 53.673 762.833 34.203 739.387 20.6657C715.94 7.1283 689.344 0.001 662.27 0Z" fill="#FF8C05" fill-opacity="0.02"/>
<path d="M698.06 115.152L693.94 112.252L735.75 52.2622L739.87 55.1622L698.06 115.152Z" fill="white" fill-opacity="0.02"/>
<path d="M623.158 206.812L611.025 224.16L621.981 231.823L634.114 214.475L623.158 206.812Z" fill="white" fill-opacity="0.02"/>
<path d="M705.14 130.85L648.04 212.48C645.04 216.83 639.95 218.56 636.75 216.33L620.53 205C617.34 202.77 617.24 197.44 620.28 193.08L677.38 111.45C680.38 107.1 685.47 105.36 688.67 107.6L704.89 118.94C708.08 121.16 708.18 126.49 705.14 130.85Z" fill="white" fill-opacity="0.02"/>
<path d="M635.27 250.701C634.162 252.34 632.572 253.595 630.72 254.291C629.967 254.608 629.147 254.735 628.333 254.662C627.519 254.589 626.735 254.317 626.05 253.871L589.05 227.961C586.45 226.141 586.39 221.741 588.86 218.211C589.971 216.561 591.568 215.299 593.43 214.601C594.185 214.3 595.001 214.184 595.81 214.262C596.618 214.34 597.397 214.611 598.08 215.051L635.08 240.961C637.63 242.771 637.71 247.151 635.27 250.701Z" fill="white" fill-opacity="0.02"/>
<path d="M712.25 427.519C736.125 427.519 755.48 408.164 755.48 384.289C755.48 360.413 736.125 341.059 712.25 341.059C688.375 341.059 669.02 360.413 669.02 384.289C669.02 408.164 688.375 427.519 712.25 427.519Z" fill="#D7E8F0"/>
<path d="M698.34 386.761C706.022 386.761 712.25 380.534 712.25 372.851C712.25 365.169 706.022 358.941 698.34 358.941C690.658 358.941 684.43 365.169 684.43 372.851C684.43 380.534 690.658 386.761 698.34 386.761Z" fill="white" fill-opacity="0.02"/>
<path d="M19.0601 820.269C42.9351 820.269 62.2901 800.914 62.2901 777.039C62.2901 753.163 42.9351 733.809 19.0601 733.809C-4.81493 733.809 -24.1699 753.163 -24.1699 777.039C-24.1699 800.914 -4.81493 820.269 19.0601 820.269Z" fill="#D7E8F0"/>
<path d="M578.44 367.892C590.375 367.892 600.05 358.217 600.05 346.282C600.05 334.347 590.375 324.672 578.44 324.672C566.505 324.672 556.83 334.347 556.83 346.282C556.83 358.217 566.505 367.892 578.44 367.892Z" fill="#D7E8F0"/>
<path d="M8.16 778.672C15.842 778.672 22.07 772.444 22.07 764.762C22.07 757.079 15.842 750.852 8.16 750.852C0.477996 750.852 -5.75 757.079 -5.75 764.762C-5.75 772.444 0.477996 778.672 8.16 778.672Z" fill="white" fill-opacity="0.02"/>
<path d="M734.29 807.99C746.225 807.99 755.9 798.314 755.9 786.38C755.9 774.445 746.225 764.77 734.29 764.77C722.355 764.77 712.68 774.445 712.68 786.38C712.68 798.314 722.355 807.99 734.29 807.99Z" fill="#D7E8F0"/>
<path d="M570.74 348.771C574.993 348.771 578.44 345.324 578.44 341.071C578.44 336.819 574.993 333.371 570.74 333.371C566.487 333.371 563.04 336.819 563.04 341.071C563.04 345.324 566.487 348.771 570.74 348.771Z" fill="white" fill-opacity="0.02"/>
<path d="M725.3 787.279C728.266 787.279 730.67 784.875 730.67 781.909C730.67 778.943 728.266 776.539 725.3 776.539C722.334 776.539 719.93 778.943 719.93 781.909C719.93 784.875 722.334 787.279 725.3 787.279Z" fill="white" fill-opacity="0.02"/>
<path d="M224.89 96.2708C236.825 96.2708 246.5 86.5958 246.5 74.6608C246.5 62.7258 236.825 53.0508 224.89 53.0508C212.955 53.0508 203.28 62.7258 203.28 74.6608C203.28 86.5958 212.955 96.2708 224.89 96.2708Z" fill="#D7E8F0"/>
<path d="M221.61 80.4391C225.863 80.4391 229.31 76.9921 229.31 72.7391C229.31 68.4861 225.863 65.0391 221.61 65.0391C217.358 65.0391 213.91 68.4861 213.91 72.7391C213.91 76.9921 217.358 80.4391 221.61 80.4391Z" fill="white" fill-opacity="0.02"/>
<path d="M669.03 676.459C713.235 676.459 749.07 640.624 749.07 596.419C749.07 552.214 713.235 516.379 669.03 516.379C624.825 516.379 588.99 552.214 588.99 596.419C588.99 640.624 624.825 676.459 669.03 676.459Z" fill="white" fill-opacity="0.02"/>
<path d="M669.03 658.061C703.073 658.061 730.67 630.464 730.67 596.421C730.67 562.378 703.073 534.781 669.03 534.781C634.987 534.781 607.39 562.378 607.39 596.421C607.39 630.464 634.987 658.061 669.03 658.061Z" fill="#FF8C05" fill-opacity="0.02"/>
<path d="M668.27 583.941C667.54 580.361 674.87 574.442 677.32 573.152C686.26 568.472 699.99 572.001 704.89 580.941C716.11 601.441 684.56 630.671 668.28 637.881C666.4 636.381 621.83 603.041 632.28 581.701C642.73 560.361 665.69 571.211 668.27 583.941Z" fill="white" fill-opacity="0.02"/>
</svg>
