<svg width="62" height="68" viewBox="0 0 62 68" fill="none" xmlns="http://www.w3.org/2000/svg">
<g id="Group 52">
<path id="Rectangle 37" d="M0.5 0H53.5C57.9183 0 61.5 3.58172 61.5 8V60C61.5 64.4183 57.9183 68 53.5 68H0.5V0Z" fill="#FF8C05"/>
<path id="Vector" d="M36.2291 37.0913H34.8522L34.3642 36.674C36.1313 34.8566 37.1024 32.5364 37.1005 30.1368C37.1005 28.15 36.4361 26.2078 35.1913 24.5558C33.9465 22.9038 32.1772 21.6163 30.1072 20.856C28.0372 20.0957 25.7594 19.8967 23.5618 20.2843C21.3643 20.6719 19.3458 21.6287 17.7614 23.0336C16.1771 24.4384 15.0982 26.2284 14.661 28.177C14.2239 30.1256 14.4483 32.1454 15.3057 33.981C16.1631 35.8166 17.6151 37.3854 19.4781 38.4893C21.3411 39.5931 23.5314 40.1822 25.7719 40.1822C28.5779 40.1822 31.1574 39.2704 33.1442 37.7559L33.6148 38.1886V39.4095L42.3291 47.1213L44.9259 44.8186L36.2291 37.0913ZM25.7719 37.0913C21.4322 37.0913 17.9291 33.9849 17.9291 30.1368C17.9291 26.2886 21.4322 23.1822 25.7719 23.1822C30.1116 23.1822 33.6148 26.2886 33.6148 30.1368C33.6148 33.9849 30.1116 37.0913 25.7719 37.0913Z" fill="white"/>
</g>
</svg>
