<svg width="151" height="150" viewBox="0 0 151 150" fill="none" xmlns="http://www.w3.org/2000/svg">
<g id="Group 50">
<circle id="Ellipse 1" cx="75.5" cy="75" r="75" fill="#FF8C05" fill-opacity="0.2"/>
<g id="Group 39">
<path id="Vector" d="M65.9108 88.1019H26.9844V74.8521C26.9898 72.0328 27.8747 69.2612 29.5554 66.799L39.5464 52.3146C40.4891 50.9388 41.8639 49.7935 43.529 48.9966C45.194 48.1998 47.089 47.7802 49.0187 47.7813H65.9108V88.1019Z" fill="#FFFCE5"/>
<path id="Vector_2" d="M49.0187 47.7813C47.089 47.7802 45.194 48.1998 43.529 48.9966C41.8639 49.7935 40.4891 50.9388 39.5464 52.3146L29.578 66.799C27.8837 69.2576 26.9907 72.0306 26.9844 74.8521V80.915C26.9885 78.099 27.8818 75.3316 29.578 72.8803L39.5464 58.3774C40.4939 57.0064 41.8703 55.8658 43.5347 55.0725C45.1991 54.2791 47.0917 53.8616 49.0187 53.8625H65.9108V47.7813H49.0187Z" fill="white"/>
<path id="Vector_3" d="M65.9108 88.1019H26.9844V74.8521C26.9898 72.0328 27.8747 69.2612 29.5554 66.799L39.5464 52.3146C40.4891 50.9389 41.8639 49.7935 43.529 48.9966C45.194 48.1998 47.089 47.7802 49.0187 47.7813H65.9108V88.1019Z" stroke="#45413C" stroke-linecap="round" stroke-linejoin="round"/>
<path id="Vector_4" d="M25 88.1025H124.977V100.302H25V88.1025Z" fill="white"/>
<path id="Vector_5" d="M122.091 88.1026H27.8868C27.1212 88.1026 26.3869 88.3511 25.8455 88.7935C25.3041 89.2358 25 89.8358 25 90.4614V95.3633C25 94.7377 25.3041 94.1377 25.8455 93.6954C26.3869 93.253 27.1212 93.0045 27.8868 93.0045H122.091C122.472 93.0021 122.849 93.0613 123.202 93.1787C123.555 93.2962 123.876 93.4695 124.147 93.6888C124.417 93.9081 124.632 94.1689 124.778 94.4563C124.925 94.7437 125 95.052 125 95.3633V90.4614C125 90.1501 124.925 89.8418 124.778 89.5545C124.632 89.2671 124.417 89.0062 124.147 88.7869C123.876 88.5677 123.555 88.3943 123.202 88.2768C122.849 88.1594 122.472 88.1002 122.091 88.1026Z" fill="#FF8C05"/>
<path id="Vector_6" d="M25 88.1025H124.977V100.302H25V88.1025Z" stroke="#45413C" stroke-linecap="round" stroke-linejoin="round"/>
<path id="Vector_7" d="M68.842 41H120.714C121.492 41 122.237 41.2524 122.787 41.7017C123.337 42.1509 123.646 42.7603 123.646 43.3957V88.1022H65.9102V43.3957C65.9102 42.7603 66.2191 42.1509 66.7689 41.7017C67.3187 41.2524 68.0645 41 68.842 41Z" fill="#FF8C05"/>
<path id="Vector_8" d="M120.601 41H68.842C68.0645 41 67.3187 41.2524 66.7689 41.7017C66.2191 42.1509 65.9102 42.7603 65.9102 43.3957V49.4953C65.9102 48.86 66.2191 48.2506 66.7689 47.8014C67.3187 47.3521 68.0645 47.0997 68.842 47.0997H120.601C121.381 47.0997 122.129 47.3515 122.682 47.8002C123.236 48.249 123.55 48.8583 123.556 49.4953V43.3957C123.55 42.7586 123.236 42.1493 122.682 41.7005C122.129 41.2518 121.381 41 120.601 41Z" fill="white"/>
<path id="Vector_9" d="M68.842 41H120.714C121.492 41 122.237 41.2524 122.787 41.7017C123.337 42.1509 123.646 42.7603 123.646 43.3957V88.1022H65.9102V43.3957C65.9102 42.7603 66.2191 42.1509 66.7689 41.7017C67.3187 41.2524 68.0645 41 68.842 41Z" stroke="#45413C" stroke-linecap="round" stroke-linejoin="round"/>
<path id="Vector_10" d="M35.8027 100.302C35.8027 101.444 36.0781 102.575 36.613 103.63C37.148 104.685 37.9321 105.644 38.9206 106.452C39.9091 107.26 41.0826 107.9 42.3741 108.338C43.6656 108.775 45.0498 109 46.4478 109C47.8457 109 49.2299 108.775 50.5214 108.338C51.8129 107.9 52.9864 107.26 53.9749 106.452C54.9634 105.644 55.7475 104.685 56.2825 103.63C56.8174 102.575 57.0928 101.444 57.0928 100.302C57.0928 97.9947 55.9712 95.7823 53.9749 94.1511C51.9786 92.5199 49.271 91.6035 46.4478 91.6035C43.6245 91.6035 40.9169 92.5199 38.9206 94.1511C36.9243 95.7823 35.8027 97.9947 35.8027 100.302ZM90.6967 100.302C90.6967 102.608 91.8183 104.821 93.8146 106.452C95.8109 108.083 98.5185 109 101.342 109C104.165 109 106.873 108.083 108.869 106.452C110.865 104.821 111.987 102.608 111.987 100.302C111.987 97.9947 110.865 95.7823 108.869 94.1511C106.873 92.5199 104.165 91.6035 101.342 91.6035C98.5185 91.6035 95.8109 92.5199 93.8146 94.1511C91.8183 95.7823 90.6967 97.9947 90.6967 100.302Z" fill="#FF8C05"/>
<path id="Vector_11" d="M46.4478 95.0492C48.9036 95.0507 51.2836 95.7446 53.1859 97.0136C55.0883 98.2827 56.3965 100.049 56.8898 102.015C57.1956 100.754 57.1554 99.4532 56.7723 98.2063C56.3891 96.9594 55.6725 95.7975 54.6739 94.804C53.6753 93.8105 52.4197 93.0103 50.9973 92.4609C49.5749 91.9114 48.0211 91.6265 46.4478 91.6265C44.8744 91.6265 43.3206 91.9114 41.8982 92.4609C40.4758 93.0103 39.2202 93.8105 38.2216 94.804C37.223 95.7975 36.5064 96.9594 36.1232 98.2063C35.7401 99.4532 35.6999 100.754 36.0057 102.015C36.499 100.049 37.8072 98.2827 39.7095 97.0136C41.6119 95.7446 43.9919 95.0507 46.4478 95.0492ZM101.342 95.0492C103.798 95.0507 106.178 95.7446 108.08 97.0136C109.982 98.2827 111.291 100.049 111.784 102.015C112.09 100.754 112.049 99.4532 111.666 98.2063C111.283 96.9594 110.566 95.7975 109.568 94.804C108.569 93.8105 107.314 93.0103 105.891 92.4609C104.469 91.9114 102.915 91.6265 101.342 91.6265C99.7684 91.6265 98.2146 91.9114 96.7922 92.4609C95.3698 93.0103 94.1142 93.8105 93.1156 94.804C92.117 95.7975 91.4004 96.9594 91.0172 98.2063C90.6341 99.4532 90.5939 100.754 90.8997 102.015C91.393 100.049 92.7012 98.2827 94.6035 97.0136C96.5059 95.7446 98.8859 95.0507 101.342 95.0492Z" fill="#525252"/>
<path id="Vector_12" d="M35.8027 100.302C35.8027 101.444 36.0781 102.575 36.613 103.63C37.148 104.685 37.9321 105.644 38.9206 106.452C39.9091 107.26 41.0826 107.9 42.3741 108.338C43.6656 108.775 45.0498 109 46.4478 109C47.8457 109 49.2299 108.775 50.5214 108.338C51.8129 107.9 52.9864 107.26 53.9749 106.452C54.9634 105.644 55.7475 104.685 56.2825 103.63C56.8174 102.575 57.0928 101.444 57.0928 100.302C57.0928 97.9947 55.9712 95.7823 53.9749 94.1511C51.9786 92.5199 49.271 91.6035 46.4478 91.6035C43.6245 91.6035 40.9169 92.5199 38.9206 94.1511C36.9243 95.7823 35.8027 97.9947 35.8027 100.302ZM90.6967 100.302C90.6967 102.608 91.8183 104.821 93.8146 106.452C95.8109 108.083 98.5185 109 101.342 109C104.165 109 106.873 108.083 108.869 106.452C110.865 104.821 111.987 102.608 111.987 100.302C111.987 97.9947 110.865 95.7823 108.869 94.1511C106.873 92.5199 104.165 91.6035 101.342 91.6035C98.5185 91.6035 95.8109 92.5199 93.8146 94.1511C91.8183 95.7823 90.6967 97.9947 90.6967 100.302Z" stroke="#45413C" stroke-linecap="round" stroke-linejoin="round"/>
<path id="Vector_13" d="M26.9844 75.792H65.9108V88.0835H26.9844V75.792Z" fill="white" stroke="#45413C" stroke-linecap="round" stroke-linejoin="round"/>
<path id="Vector_14" d="M54.2511 54.1934H38.2385L29.5556 66.7982C29.3075 67.1667 29.082 67.5537 28.8564 67.9407H49.9435C50.3737 67.9381 50.7981 67.8593 51.1874 67.7098C51.5767 67.5602 51.9218 67.3435 52.1988 67.0746L56.5064 62.8177C56.9467 62.3895 57.1865 61.8474 57.183 61.2882V56.6074C57.183 55.9704 56.8749 55.3591 56.3257 54.9069C55.7765 54.4547 55.0308 54.1982 54.2511 54.1934Z" fill="#FF8C05"/>
<path id="Vector_15" d="M54.2514 54.1934H47.3728L38.3516 67.9407H49.8987C50.3291 67.9393 50.754 67.8611 51.1436 67.7115C51.5331 67.5618 51.878 67.3445 52.154 67.0746L56.4616 62.8177C56.9019 62.3895 57.1417 61.8474 57.1382 61.2882V56.6074C57.1384 55.9766 56.8364 55.3709 56.2969 54.9197C55.7574 54.4685 55.0232 54.2078 54.2514 54.1934Z" fill="#FF8C05"/>
<path id="Vector_16" d="M54.2511 54.1934H38.2385L29.5556 66.7982C29.3075 67.1667 29.082 67.5537 28.8564 67.9407H49.9435C50.3737 67.9381 50.7981 67.8593 51.1874 67.7098C51.5767 67.5602 51.9218 67.3435 52.1988 67.0746L56.5064 62.8177C56.9467 62.3895 57.1865 61.8474 57.183 61.2882V56.6074C57.183 55.9704 56.8749 55.3591 56.3257 54.9069C55.7765 54.4547 55.0308 54.1982 54.2511 54.1934Z" stroke="#45413C" stroke-linecap="round" stroke-linejoin="round"/>
<path id="Vector_17" d="M32.1252 77.9298C32.1252 77.4902 32.0189 77.055 31.8124 76.6491C31.6058 76.2432 31.3031 75.8747 30.9217 75.5647C30.5402 75.2547 30.0875 75.0094 29.5897 74.8429C29.0918 74.6763 28.5586 74.5919 28.0206 74.5943H25.6074V81.3574H28.0206C28.5682 81.36 29.1108 81.2726 29.6162 81.1004C30.1216 80.9281 30.5794 80.6745 30.9624 80.3547C31.3454 80.0349 31.6457 79.6554 31.8454 79.2388C32.0452 78.8222 32.1404 78.377 32.1252 77.9298Z" fill="#FF8A14" stroke="#45413C" stroke-linecap="round" stroke-linejoin="round"/>
<path id="Vector_18" d="M65.9102 52.5547H123.556M65.9102 64.5514H123.556M65.9102 76.8429H123.556" stroke="#45413C" stroke-linecap="round" stroke-linejoin="round"/>
<path id="Vector_19" d="M42.9521 100.301C42.9521 100.676 43.0426 101.048 43.2182 101.394C43.3939 101.741 43.6514 102.056 43.976 102.321C44.3006 102.586 44.686 102.797 45.1101 102.94C45.5342 103.084 45.9888 103.158 46.4479 103.158C46.9069 103.158 47.3615 103.084 47.7856 102.94C48.2097 102.797 48.5951 102.586 48.9197 102.321C49.2443 102.056 49.5018 101.741 49.6775 101.394C49.8532 101.048 49.9436 100.676 49.9436 100.301C49.9436 99.9261 49.8532 99.5546 49.6775 99.2081C49.5018 98.8615 49.2443 98.5467 48.9197 98.2814C48.5951 98.0162 48.2097 97.8058 47.7856 97.6623C47.3615 97.5187 46.9069 97.4448 46.4479 97.4448C45.9888 97.4448 45.5342 97.5187 45.1101 97.6623C44.686 97.8058 44.3006 98.0162 43.976 98.2814C43.6514 98.5467 43.3939 98.8615 43.2182 99.2081C43.0426 99.5546 42.9521 99.9261 42.9521 100.301ZM97.8462 100.301C97.8462 101.059 98.2145 101.785 98.87 102.321C99.5256 102.857 100.415 103.158 101.342 103.158C102.269 103.158 103.158 102.857 103.814 102.321C104.469 101.785 104.838 101.059 104.838 100.301C104.838 99.5436 104.469 98.8171 103.814 98.2814C103.158 97.7458 102.269 97.4448 101.342 97.4448C100.415 97.4448 99.5256 97.7458 98.87 98.2814C98.2145 98.8171 97.8462 99.5436 97.8462 100.301Z" fill="#DAEDF7" stroke="#45413C" stroke-linecap="round" stroke-linejoin="round"/>
</g>
</g>
</svg>
