<svg width="30" height="30" viewBox="0 0 30 30" fill="none" xmlns="http://www.w3.org/2000/svg">
<g id="typcn:tick">
<path id="Vector" d="M21.2145 7.81332C20.9275 7.65364 20.6119 7.55209 20.2856 7.51448C19.9594 7.47688 19.6289 7.50395 19.3131 7.59416C18.9974 7.68436 18.7025 7.83593 18.4453 8.04019C18.1882 8.24445 17.9738 8.4974 17.8145 8.78457L13.1732 17.1371L10.517 14.4808C10.2864 14.242 10.0105 14.0516 9.70548 13.9206C9.40047 13.7895 9.07242 13.7206 8.74047 13.7177C8.40853 13.7148 8.07933 13.7781 7.77209 13.9038C7.46484 14.0295 7.18571 14.2151 6.95098 14.4498C6.71625 14.6846 6.53062 14.9637 6.40492 15.2709C6.27921 15.5782 6.21596 15.9074 6.21884 16.2393C6.22173 16.5713 6.29069 16.8993 6.42172 17.2043C6.55274 17.5093 6.74319 17.7852 6.98197 18.0158L11.982 23.0158C12.4545 23.4896 13.092 23.7496 13.7495 23.7496L14.0957 23.7246C14.4789 23.671 14.8444 23.5292 15.1635 23.3103C15.4826 23.0914 15.7465 22.8015 15.9345 22.4633L22.1845 11.2133C22.344 10.9264 22.4455 10.6108 22.4831 10.2847C22.5207 9.95852 22.4937 9.62814 22.4037 9.31242C22.3136 8.9967 22.1622 8.70181 21.9582 8.44459C21.7541 8.18738 21.5014 7.97287 21.2145 7.81332Z" fill="#FF8C05"/>
</g>
</svg>
