<svg width="80" height="80" viewBox="0 0 80 80" fill="none" xmlns="http://www.w3.org/2000/svg">
<path d="M61.6 39.9998C58.8033 37.6556 55.2481 36.4112 51.6 36.4998H28.15C27.0808 36.5268 26.0171 36.3378 25.0227 35.9441C24.0283 35.5503 23.1235 34.96 22.3626 34.2084C21.6017 33.4568 21.0002 32.5594 20.5943 31.57C20.1883 30.5805 19.9862 29.5192 20 28.4498C19.9739 28.0335 19.9739 27.6161 20 27.1998C20.3152 25.2888 21.3173 23.5587 22.8179 22.3342C24.3186 21.1098 26.2146 20.4752 28.15 20.5498H51.25C53.1343 20.5481 54.9579 21.2158 56.3957 22.4338C57.8334 23.6518 58.7918 25.3409 59.1 27.1998H66.6C66.286 23.3445 64.5327 19.7485 61.6886 17.1268C58.8446 14.505 55.118 13.0496 51.25 13.0498H43.35V1.5498H37.1V13.0498H28.15C24.2819 13.0496 20.5554 14.505 17.7113 17.1268C14.8672 19.7485 13.1139 23.3445 12.8 27.1998C12.775 27.6161 12.775 28.0335 12.8 28.4498C12.8 30.4656 13.197 32.4616 13.9684 34.324C14.7398 36.1863 15.8705 37.8785 17.2959 39.3039C20.1746 42.1826 24.0789 43.7998 28.15 43.7998H51.85C52.9107 43.7731 53.966 43.959 54.9538 44.3466C55.9415 44.7341 56.8417 45.3155 57.6012 46.0564C58.3607 46.7973 58.9643 47.6827 59.3763 48.6606C59.7882 49.6384 60.0003 50.6888 60 51.7498C60.0519 52.3153 60.0519 52.8843 60 53.4498C59.603 55.2091 58.6196 56.7811 57.2113 57.9077C55.803 59.0344 54.0535 59.6487 52.25 59.6498H28.75C26.9465 59.6487 25.1969 59.0344 23.7886 57.9077C22.3803 56.7811 21.397 55.2091 21 53.4498H13.45C13.8796 57.2066 15.6765 60.674 18.498 63.1912C21.3196 65.7085 24.9687 67.0997 28.75 67.0998H37.1V78.4498H43.35V67.0998H51.85C55.6312 67.0997 59.2803 65.7085 62.1019 63.1912C64.9234 60.674 66.7203 57.2066 67.15 53.4498V51.7498C67.1439 49.504 66.6436 47.287 65.6844 45.2563C64.7252 43.2256 63.3307 41.431 61.6 39.9998Z" fill="#FF8C05"/>
</svg>
