<svg width="80" height="80" viewBox="0 0 80 80" fill="none" xmlns="http://www.w3.org/2000/svg">
<g id="gg:browse">
<g id="Group">
<path id="Vector" fill-rule="evenodd" clip-rule="evenodd" d="M47.88 43.7367C50.96 46.8167 51.6134 51.4033 49.8334 55.12L54.9501 60.2367C55.5572 60.8653 55.8932 61.7073 55.8856 62.5813C55.878 63.4553 55.5275 64.2914 54.9094 64.9094C54.2914 65.5274 53.4554 65.878 52.5814 65.8856C51.7074 65.8932 50.8654 65.5572 50.2367 64.95L45.12 59.8333C42.9913 60.8474 40.5727 61.077 38.2912 60.4814C36.0097 59.8858 34.0119 58.5035 32.6504 56.5783C31.2889 54.6531 30.6513 52.3088 30.8501 49.9592C31.0488 47.6096 32.0712 45.4058 33.7367 43.7367C34.6653 42.8079 35.7678 42.0711 36.9812 41.5685C38.1945 41.0658 39.495 40.8071 40.8084 40.8071C42.1217 40.8071 43.4222 41.0658 44.6356 41.5685C45.849 42.0711 46.9514 42.8079 47.88 43.7367ZM43.1667 53.1667C43.4851 52.8592 43.739 52.4914 43.9137 52.0847C44.0884 51.678 44.1804 51.2406 44.1842 50.798C44.1881 50.3554 44.1037 49.9165 43.9361 49.5068C43.7685 49.0972 43.521 48.725 43.208 48.412C42.8951 48.099 42.5229 47.8515 42.1132 47.6839C41.7036 47.5163 41.2646 47.432 40.822 47.4358C40.3794 47.4397 39.942 47.5316 39.5354 47.7063C39.1287 47.881 38.7609 48.135 38.4534 48.4533C37.8462 49.082 37.5102 49.924 37.5178 50.798C37.5254 51.672 37.876 52.508 38.494 53.1261C39.112 53.7441 39.9481 54.0946 40.822 54.1022C41.696 54.1098 42.538 53.7739 43.1667 53.1667Z" fill="#FF8C05"/>
<path id="Vector_2" d="M26.666 16.667H53.3327V23.3337H26.666V16.667ZM53.3327 30.0003H26.666V36.667H53.3327V30.0003Z" fill="#FF8C05"/>
<path id="Vector_3" fill-rule="evenodd" clip-rule="evenodd" d="M13.333 13.3335C13.333 10.6813 14.3866 8.13779 16.2619 6.26243C18.1373 4.38706 20.6808 3.3335 23.333 3.3335H56.6663C59.3185 3.3335 61.862 4.38706 63.7374 6.26243C65.6128 8.13779 66.6663 10.6813 66.6663 13.3335V66.6668C66.6663 69.319 65.6128 71.8625 63.7374 73.7379C61.862 75.6133 59.3185 76.6668 56.6663 76.6668H23.333C20.6808 76.6668 18.1373 75.6133 16.2619 73.7379C14.3866 71.8625 13.333 69.319 13.333 66.6668V13.3335ZM23.333 10.0002H56.6663C57.5504 10.0002 58.3982 10.3514 59.0234 10.9765C59.6485 11.6016 59.9997 12.4494 59.9997 13.3335V66.6668C59.9997 67.5509 59.6485 68.3987 59.0234 69.0239C58.3982 69.649 57.5504 70.0002 56.6663 70.0002H23.333C22.449 70.0002 21.6011 69.649 20.976 69.0239C20.3509 68.3987 19.9997 67.5509 19.9997 66.6668V13.3335C19.9997 12.4494 20.3509 11.6016 20.976 10.9765C21.6011 10.3514 22.449 10.0002 23.333 10.0002Z" fill="#FF8C05"/>
</g>
</g>
</svg>
