<svg width="80" height="84" viewBox="0 0 80 84" fill="none" xmlns="http://www.w3.org/2000/svg">
<path d="M0 79.087H8.88838V51.1739H0V79.087ZM42.042 83.7392L29.0206 80.7618L15.9991 77.5518C15.2454 77.398 14.5683 76.9694 14.0881 76.3422C13.5914 75.7333 13.3229 74.9563 13.3326 74.1557V55.547C13.3452 54.7505 13.611 53.9811 14.0881 53.3605C14.5844 52.7529 15.2545 52.3288 15.9991 52.1509L37.2423 49.4061L58.53 46.6148L59.1966 49.22L59.8632 51.7787C59.875 52.6365 59.643 53.4785 59.1966 54.1979C58.7882 54.9501 58.1672 55.5515 57.4189 55.9192L48.5306 58.2453L39.6422 60.5713L46.8418 63.6418L54.0858 66.6657L64.1741 63.6883L73.9958 60.4783C74.8686 60.2473 75.793 60.3807 76.5734 60.8505C76.9665 61.0727 77.3114 61.3774 77.5867 61.7457C77.8621 62.1139 78.0617 62.5377 78.1733 62.9905L79.0177 66.5726L79.9065 70.1083C80.1081 70.9925 79.981 71.9238 79.551 72.7135C79.0939 73.5103 78.3622 74.0931 77.5067 74.3418L61.3743 78.994L45.2419 83.6461C44.7107 83.7172 44.1731 83.7172 43.6419 83.6461C43.1172 83.7691 42.5766 83.8005 42.042 83.7392ZM26.6651 0L17.7768 9.30435L8.88838 18.6087L17.7768 27.9131L26.6651 37.2174L29.7761 33.9609L32.887 30.7044L27.1096 24.6565L21.3321 18.6087L27.1096 12.5609L32.887 6.51305L29.7761 3.25652L26.6651 0ZM53.3303 0L50.2194 3.25652L47.1084 6.51305L52.8859 12.5609L58.6633 18.6087L52.8859 24.6565L47.1084 30.7044L50.2194 33.9609L53.3303 37.2174L62.2187 27.9131L71.107 18.6087L62.2187 9.30435L53.3303 0Z" fill="#FF8C05"/>
</svg>
