<svg width="40" height="40" viewBox="0 0 40 40" fill="none" xmlns="http://www.w3.org/2000/svg">
<g id="simple-icons:gmail" clip-path="url(#clip0_196_1682)">
<path id="Vector" d="M40 9.09507V32.2767C40 33.7834 38.78 35.0034 37.2733 35.0034H30.9083V19.5501L20 27.7334L9.09167 19.5501V35.0051H2.72667C2.36846 35.0051 2.01376 34.9345 1.68283 34.7974C1.35191 34.6602 1.05125 34.4592 0.798033 34.2059C0.544817 33.9525 0.344007 33.6517 0.207077 33.3207C0.0701473 32.9897 -0.000218446 32.6349 5.09419e-07 32.2767V9.09507C5.09419e-07 5.7234 3.84833 3.7984 6.545 5.82173L9.09167 7.7334L20 15.9134L30.9083 7.73007L33.455 5.82173C36.15 3.80007 40 5.7234 40 9.09507Z" fill="white"/>
</g>
<defs>
<clipPath id="clip0_196_1682">
<rect width="40" height="40" fill="white"/>
</clipPath>
</defs>
</svg>
