<svg width="40" height="40" viewBox="0 0 40 40" fill="none" xmlns="http://www.w3.org/2000/svg">
<g id="line-md:instagram">
<g id="Group">
<path id="Vector" d="M20 5H13.3333C8.73097 5 5 8.73097 5 13.3333V26.6667C5 31.269 8.73097 35 13.3333 35H26.6667C31.269 35 35 31.269 35 26.6667V13.3333C35 8.73097 31.269 5 26.6667 5H20Z" stroke="white" stroke-width="2" stroke-linecap="round" stroke-linejoin="round"/>
<path id="Vector_2" d="M19.9997 13.3333C23.6816 13.3333 26.6663 16.318 26.6663 19.9999C26.6663 23.6818 23.6816 26.6666 19.9997 26.6666C16.3178 26.6666 13.333 23.6818 13.333 19.9999C13.333 16.318 16.3178 13.3333 19.9997 13.3333Z" stroke="white" stroke-width="2" stroke-linecap="round" stroke-linejoin="round"/>
</g>
<path id="Vector_3" d="M28.333 14.1667C29.7137 14.1667 30.833 13.0475 30.833 11.6667C30.833 10.286 29.7137 9.16675 28.333 9.16675C26.9523 9.16675 25.833 10.286 25.833 11.6667C25.833 13.0475 26.9523 14.1667 28.333 14.1667Z" fill="white"/>
</g>
</svg>
