<svg width="151" height="150" viewBox="0 0 151 150" fill="none" xmlns="http://www.w3.org/2000/svg">
<g id="Group 41">
<circle id="Ellipse 1" cx="75.5" cy="75" r="75" fill="#FF8C05" fill-opacity="0.2"/>
<path id="Vector" d="M59.9371 46C59.5838 45.9998 59.2339 46.0702 58.9076 46.2071C58.5812 46.3439 58.2846 46.5446 58.0349 46.7977C57.7851 47.0508 57.5871 47.3512 57.4521 47.6818C57.3172 48.0125 57.2479 48.3668 57.2482 48.7246C57.2489 49.447 57.5323 50.1397 58.0363 50.6509C58.5403 51.1621 59.2238 51.4502 59.9371 51.452C60.636 51.4294 61.299 51.1323 61.7855 50.6236C62.2721 50.1148 62.5442 49.4343 62.5442 48.726C62.5442 48.0177 62.2721 47.3372 61.7855 46.8284C61.299 46.3197 60.636 46.0226 59.9371 46ZM64.3993 60.1538C63.7215 60.1538 63.0716 60.4265 62.5923 60.9119C62.1131 61.3972 61.8439 62.0555 61.8439 62.7419C61.8439 63.4283 62.1131 64.0866 62.5923 64.572C63.0716 65.0574 63.7215 65.33 64.3993 65.33C65.077 65.33 65.727 65.0574 66.2062 64.572C66.6855 64.0866 66.9547 63.4283 66.9547 62.7419C66.9547 62.0555 66.6855 61.3972 66.2062 60.9119C65.727 60.4265 65.077 60.1538 64.3993 60.1538ZM55.0561 61.8224C54.3782 61.8224 53.728 62.0952 53.2487 62.5807C52.7693 63.0661 52.5 63.7246 52.5 64.4112C52.5 65.0978 52.7693 65.7563 53.2487 66.2418C53.728 66.7273 54.3782 67 55.0561 67C55.734 67 56.3842 66.7273 56.8635 66.2418C57.3429 65.7563 57.6122 65.0978 57.6122 64.4112C57.6122 63.7246 57.3429 63.0661 56.8635 62.5807C56.3842 62.0952 55.734 61.8224 55.0561 61.8224ZM64.9412 52.5482C64.6053 52.5484 64.2728 52.6156 63.9626 52.7459C63.6523 52.8762 63.3705 53.0672 63.1332 53.3078C62.8958 53.5485 62.7076 53.8341 62.5792 54.1485C62.4508 54.4628 62.3849 54.7996 62.3851 55.1398C62.3852 55.4799 62.4516 55.8167 62.5803 56.1309C62.7089 56.4451 62.8975 56.7305 63.1351 56.9709C63.3727 57.2113 63.6547 57.4019 63.9651 57.5319C64.2754 57.6619 64.608 57.7288 64.9439 57.7286C65.6222 57.7282 66.2725 57.455 66.7519 56.9689C67.2313 56.4829 67.5004 55.824 67.5 55.137C67.4996 54.45 67.2298 53.7914 66.75 53.3059C66.2701 52.8204 65.6194 52.5478 64.9412 52.5482Z" fill="#FF8C05"/>
<path id="Vector_2" d="M106.619 34H45.3821C39.3822 34 34.5 38.8221 34.5 44.7535V105.246C34.5 111.177 39.3809 116 45.3821 116H106.619C112.619 116 117.5 111.177 117.5 105.246V44.7535C117.5 38.8221 112.619 34 106.619 34ZM43.2598 57.2959C43.2598 49.0989 50.0144 42.4243 58.3153 42.4243C66.6136 42.4243 73.3656 49.0976 73.3656 57.2959C73.3656 65.4981 66.6136 72.17 58.3153 72.17C50.0144 72.17 43.2598 65.4981 43.2598 57.2959ZM67.8076 84.0875L82.7802 92.6275L81.2984 95.1658L66.323 86.6246L67.8062 84.0888L67.8076 84.0875ZM105.009 106.101H68.1902V100.031H81.2707C90.2199 100.031 97.5018 92.8418 97.5018 83.9992C97.5018 78.4042 94.5696 73.3548 89.9885 70.4735L82.5252 83.2483L80.9762 82.3637L78.7738 86.1244L74.8791 83.9043L77.0802 80.1384L75.5273 79.2524L93.2784 48.8728L94.4762 49.5535L96.2618 46.5021L100.93 49.1651L99.1441 52.2192L100.279 52.8687L93.0601 65.2188C96.2967 67.2001 98.9679 69.9647 100.821 73.2509C102.674 76.5371 103.647 80.2362 103.649 83.9979C103.649 90.3243 100.911 95.9959 96.5814 100.029H105.01V106.1L105.009 106.101Z" fill="#FF8C05"/>
<path id="Vector_3" d="M58.1674 55.8906C57.8547 55.8794 57.5431 55.9371 57.2511 56.0604C56.9592 56.1837 56.6929 56.3701 56.468 56.6083C56.2432 56.8466 56.0644 57.132 55.9423 57.4474C55.8202 57.7629 55.7572 58.102 55.7572 58.4446C55.7572 58.7872 55.8202 59.1263 55.9423 59.4418C56.0644 59.7572 56.2432 60.0426 56.468 60.2809C56.6929 60.5191 56.9592 60.7055 57.2511 60.8288C57.5431 60.9521 57.8547 61.0098 58.1674 60.9986C58.7861 60.9986 59.3794 60.7295 59.8168 60.2506C60.2542 59.7716 60.5 59.122 60.5 58.4446C60.5 57.7672 60.2542 57.1176 59.8168 56.6386C59.3794 56.1596 58.7861 55.8906 58.1674 55.8906ZM55.2039 52H50.5V57.1888H55.2039V52ZM54.2119 56.1176H51.4658V53.0684H54.2119V56.1176Z" fill="#FF8C05"/>
<path id="Vector_4" d="M58.0013 43C50.5588 43 44.5 49.2832 44.5 57C44.5 64.7182 50.5588 71 58.0026 71C65.4412 71 71.5 64.7195 71.5 57C71.5 49.2845 65.4412 43 58.0026 43H58.0013ZM58.013 69.1459C51.5566 69.1459 46.3048 63.7036 46.3048 57.0094C46.3048 50.3126 51.5566 44.8635 58.013 44.8635C64.4667 44.8635 69.7173 50.314 69.7173 57.0094C69.7173 63.7036 64.4667 69.1459 58.013 69.1459Z" fill="#FF8C05"/>
</g>
</svg>
